<mxfile host="app.diagrams.net" modified="2023-04-04T06:49:15.921Z" agent="Mozilla/5.0 (Windows NT 10.0; Win64; x64) AppleWebKit/537.36 (KHTML, like Gecko) Chrome/111.0.0.0 Safari/537.36 Edg/111.0.1661.62" etag="FQY31FqHZAXPboV9W23V" version="21.1.4" type="device">
  <diagram name="Page-1" id="2YBvvXClWsGukQMizWep">
    <mxGraphModel dx="904" dy="484" grid="1" gridSize="10" guides="1" tooltips="1" connect="1" arrows="1" fold="1" page="1" pageScale="1" pageWidth="850" pageHeight="1100" math="0" shadow="0">
      <root>
        <mxCell id="0" />
        <mxCell id="1" parent="0" />
        <mxCell id="Kf9ZpR9fP1QTdMHRRJBf-1" value="" style="endArrow=none;dashed=1;html=1;rounded=0;" parent="1" source="Hb3xwDTmt38fr-vLlCLR-32" edge="1">
          <mxGeometry width="50" height="50" relative="1" as="geometry">
            <mxPoint x="290" y="640" as="sourcePoint" />
            <mxPoint x="290" y="210" as="targetPoint" />
          </mxGeometry>
        </mxCell>
        <mxCell id="Hb3xwDTmt38fr-vLlCLR-3" value="System" style="shape=umlLifeline;perimeter=lifelinePerimeter;whiteSpace=wrap;html=1;container=0;dropTarget=0;collapsible=0;recursiveResize=0;outlineConnect=0;portConstraint=eastwest;newEdgeStyle={&quot;edgeStyle&quot;:&quot;elbowEdgeStyle&quot;,&quot;elbow&quot;:&quot;vertical&quot;,&quot;curved&quot;:0,&quot;rounded&quot;:0};" parent="1" vertex="1">
          <mxGeometry x="426" y="175" width="100" height="595" as="geometry" />
        </mxCell>
        <mxCell id="Hb3xwDTmt38fr-vLlCLR-5" value="" style="endArrow=classic;html=1;rounded=0;" parent="1" edge="1">
          <mxGeometry width="50" height="50" relative="1" as="geometry">
            <mxPoint x="295.5" y="278" as="sourcePoint" />
            <mxPoint x="470" y="278" as="targetPoint" />
          </mxGeometry>
        </mxCell>
        <mxCell id="Hb3xwDTmt38fr-vLlCLR-6" value="Select Cloth" style="text;html=1;strokeColor=none;fillColor=none;align=center;verticalAlign=middle;whiteSpace=wrap;rounded=0;fontSize=10;" parent="1" vertex="1">
          <mxGeometry x="350" y="253" width="60" height="30" as="geometry" />
        </mxCell>
        <mxCell id="Hb3xwDTmt38fr-vLlCLR-7" value="" style="endArrow=classic;html=1;rounded=0;" parent="1" edge="1">
          <mxGeometry width="50" height="50" relative="1" as="geometry">
            <mxPoint x="294.5" y="320" as="sourcePoint" />
            <mxPoint x="470" y="320" as="targetPoint" />
          </mxGeometry>
        </mxCell>
        <mxCell id="Hb3xwDTmt38fr-vLlCLR-8" value="Select size" style="text;html=1;strokeColor=none;fillColor=none;align=center;verticalAlign=middle;whiteSpace=wrap;rounded=0;fontSize=10;" parent="1" vertex="1">
          <mxGeometry x="350" y="296" width="60" height="30" as="geometry" />
        </mxCell>
        <mxCell id="Hb3xwDTmt38fr-vLlCLR-9" value="" style="endArrow=classic;html=1;rounded=0;" parent="1" edge="1">
          <mxGeometry width="50" height="50" relative="1" as="geometry">
            <mxPoint x="296.5" y="361" as="sourcePoint" />
            <mxPoint x="470" y="361" as="targetPoint" />
          </mxGeometry>
        </mxCell>
        <mxCell id="Hb3xwDTmt38fr-vLlCLR-10" value="Select colour" style="text;html=1;strokeColor=none;fillColor=none;align=center;verticalAlign=middle;whiteSpace=wrap;rounded=0;fontSize=10;" parent="1" vertex="1">
          <mxGeometry x="350" y="340" width="60" height="30" as="geometry" />
        </mxCell>
        <mxCell id="Hb3xwDTmt38fr-vLlCLR-11" value="" style="endArrow=classic;html=1;rounded=0;" parent="1" edge="1">
          <mxGeometry width="50" height="50" relative="1" as="geometry">
            <mxPoint x="296.5" y="398" as="sourcePoint" />
            <mxPoint x="470" y="398" as="targetPoint" />
          </mxGeometry>
        </mxCell>
        <mxCell id="Hb3xwDTmt38fr-vLlCLR-12" value="Select Quantity" style="text;html=1;strokeColor=none;fillColor=none;align=center;verticalAlign=middle;whiteSpace=wrap;rounded=0;fontSize=10;" parent="1" vertex="1">
          <mxGeometry x="348" y="377" width="70" height="30" as="geometry" />
        </mxCell>
        <mxCell id="Hb3xwDTmt38fr-vLlCLR-15" value="" style="rounded=0;whiteSpace=wrap;html=1;" parent="1" vertex="1">
          <mxGeometry x="471" y="270" width="10" height="332" as="geometry" />
        </mxCell>
        <mxCell id="Hb3xwDTmt38fr-vLlCLR-19" value="" style="endArrow=classic;html=1;rounded=0;" parent="1" edge="1">
          <mxGeometry width="50" height="50" relative="1" as="geometry">
            <mxPoint x="293" y="462" as="sourcePoint" />
            <mxPoint x="473.5" y="462" as="targetPoint" />
          </mxGeometry>
        </mxCell>
        <mxCell id="Hb3xwDTmt38fr-vLlCLR-22" value="Add to Cart" style="endArrow=classic;html=1;rounded=0;fontSize=10;" parent="1" edge="1">
          <mxGeometry x="-0.0471" y="7" width="50" height="50" relative="1" as="geometry">
            <mxPoint x="292" y="523" as="sourcePoint" />
            <mxPoint x="472.5" y="523" as="targetPoint" />
            <mxPoint as="offset" />
          </mxGeometry>
        </mxCell>
        <mxCell id="Hb3xwDTmt38fr-vLlCLR-32" value="" style="shape=umlDestroy;html=1;" parent="1" vertex="1">
          <mxGeometry x="275" y="770" width="30" height="30" as="geometry" />
        </mxCell>
        <mxCell id="Hb3xwDTmt38fr-vLlCLR-33" value="" style="shape=umlDestroy;html=1;" parent="1" vertex="1">
          <mxGeometry x="461" y="770" width="30" height="30" as="geometry" />
        </mxCell>
        <mxCell id="Hb3xwDTmt38fr-vLlCLR-35" value="&lt;b&gt;&lt;font style=&quot;font-size: 38px;&quot; face=&quot;Comic Sans MS&quot;&gt;Attire Selection Sequence Diagram&lt;/font&gt;&lt;/b&gt;" style="rounded=0;whiteSpace=wrap;html=1;" parent="1" vertex="1">
          <mxGeometry x="87" y="40" width="680" height="80" as="geometry" />
        </mxCell>
        <mxCell id="Kf9ZpR9fP1QTdMHRRJBf-2" value="CUSTOMER" style="shape=umlActor;verticalLabelPosition=bottom;verticalAlign=top;html=1;outlineConnect=0;" parent="1" vertex="1">
          <mxGeometry x="275" y="130" width="30" height="55" as="geometry" />
        </mxCell>
        <mxCell id="Kf9ZpR9fP1QTdMHRRJBf-3" value="" style="html=1;points=[];perimeter=orthogonalPerimeter;outlineConnect=0;targetShapes=umlLifeline;portConstraint=eastwest;newEdgeStyle={&quot;edgeStyle&quot;:&quot;elbowEdgeStyle&quot;,&quot;elbow&quot;:&quot;vertical&quot;,&quot;curved&quot;:0,&quot;rounded&quot;:0};" parent="1" vertex="1">
          <mxGeometry x="285" y="270" width="10" height="332" as="geometry" />
        </mxCell>
        <mxCell id="L4OkEBwENJm-gtJUA89r-1" value="Add to Wishlist" style="endArrow=classic;html=1;rounded=0;fontSize=10;" parent="1" edge="1">
          <mxGeometry x="-0.0471" y="7" width="50" height="50" relative="1" as="geometry">
            <mxPoint x="296" y="580" as="sourcePoint" />
            <mxPoint x="470" y="580" as="targetPoint" />
            <mxPoint as="offset" />
          </mxGeometry>
        </mxCell>
        <mxCell id="WsTsL_2Va_0x4rhTqGOX-1" value="Database" style="shape=umlLifeline;perimeter=lifelinePerimeter;whiteSpace=wrap;html=1;container=0;dropTarget=0;collapsible=0;recursiveResize=0;outlineConnect=0;portConstraint=eastwest;newEdgeStyle={&quot;edgeStyle&quot;:&quot;elbowEdgeStyle&quot;,&quot;elbow&quot;:&quot;vertical&quot;,&quot;curved&quot;:0,&quot;rounded&quot;:0};" parent="1" vertex="1">
          <mxGeometry x="610" y="175" width="100" height="595" as="geometry" />
        </mxCell>
        <mxCell id="WsTsL_2Va_0x4rhTqGOX-3" value="" style="shape=umlDestroy;html=1;" parent="1" vertex="1">
          <mxGeometry x="645" y="766" width="30" height="30" as="geometry" />
        </mxCell>
        <mxCell id="uNLvpBGVdHc5UjUdVYCD-2" value="Alternative" style="shape=umlFrame;whiteSpace=wrap;html=1;pointerEvents=0;recursiveResize=0;container=1;collapsible=0;width=160;" parent="1" vertex="1">
          <mxGeometry x="110" y="412" width="610" height="200" as="geometry" />
        </mxCell>
        <mxCell id="uNLvpBGVdHc5UjUdVYCD-3" value="Update database" style="endArrow=classic;html=1;rounded=0;fontSize=10;" parent="uNLvpBGVdHc5UjUdVYCD-2" edge="1">
          <mxGeometry x="-0.0471" y="7" width="50" height="50" relative="1" as="geometry">
            <mxPoint x="371" y="169.5" as="sourcePoint" />
            <mxPoint x="551.5" y="169.5" as="targetPoint" />
            <mxPoint as="offset" />
          </mxGeometry>
        </mxCell>
        <mxCell id="uNLvpBGVdHc5UjUdVYCD-4" value="Update database" style="endArrow=classic;html=1;rounded=0;fontSize=10;" parent="uNLvpBGVdHc5UjUdVYCD-2" edge="1">
          <mxGeometry x="-0.0471" y="7" width="50" height="50" relative="1" as="geometry">
            <mxPoint x="371" y="112" as="sourcePoint" />
            <mxPoint x="551.5" y="112" as="targetPoint" />
            <mxPoint as="offset" />
          </mxGeometry>
        </mxCell>
        <mxCell id="uNLvpBGVdHc5UjUdVYCD-5" value="Place order" style="text;html=1;strokeColor=none;fillColor=none;align=center;verticalAlign=middle;whiteSpace=wrap;rounded=0;fontSize=10;" parent="uNLvpBGVdHc5UjUdVYCD-2" vertex="1">
          <mxGeometry x="215" y="25" width="120" height="30" as="geometry" />
        </mxCell>
        <mxCell id="uNLvpBGVdHc5UjUdVYCD-6" value="Update database" style="endArrow=classic;html=1;rounded=0;fontSize=10;" parent="uNLvpBGVdHc5UjUdVYCD-2" edge="1">
          <mxGeometry x="-0.0471" y="7" width="50" height="50" relative="1" as="geometry">
            <mxPoint x="370" y="50" as="sourcePoint" />
            <mxPoint x="550.5" y="50" as="targetPoint" />
            <mxPoint as="offset" />
            <Array as="points">
              <mxPoint x="460" y="50" />
            </Array>
          </mxGeometry>
        </mxCell>
        <mxCell id="uNLvpBGVdHc5UjUdVYCD-7" value="" style="endArrow=none;dashed=1;html=1;rounded=0;exitX=-0.004;exitY=0.356;exitDx=0;exitDy=0;exitPerimeter=0;" parent="uNLvpBGVdHc5UjUdVYCD-2" source="uNLvpBGVdHc5UjUdVYCD-2" edge="1">
          <mxGeometry width="50" height="50" relative="1" as="geometry">
            <mxPoint x="140" y="120" as="sourcePoint" />
            <mxPoint x="610" y="70" as="targetPoint" />
          </mxGeometry>
        </mxCell>
        <mxCell id="uNLvpBGVdHc5UjUdVYCD-8" value="Order Place" style="text;html=1;strokeColor=none;fillColor=none;align=center;verticalAlign=middle;whiteSpace=wrap;rounded=0;fontStyle=1" parent="uNLvpBGVdHc5UjUdVYCD-2" vertex="1">
          <mxGeometry x="50" y="40" width="60" height="30" as="geometry" />
        </mxCell>
        <mxCell id="uNLvpBGVdHc5UjUdVYCD-9" value="Add to&lt;br&gt;Cart" style="text;html=1;strokeColor=none;fillColor=none;align=center;verticalAlign=middle;whiteSpace=wrap;rounded=0;fontStyle=1" parent="uNLvpBGVdHc5UjUdVYCD-2" vertex="1">
          <mxGeometry x="50" y="100" width="60" height="30" as="geometry" />
        </mxCell>
        <mxCell id="uNLvpBGVdHc5UjUdVYCD-10" value="Add to&lt;br&gt;Wishlist" style="text;html=1;strokeColor=none;fillColor=none;align=center;verticalAlign=middle;whiteSpace=wrap;rounded=0;fontStyle=1" parent="uNLvpBGVdHc5UjUdVYCD-2" vertex="1">
          <mxGeometry x="50" y="160" width="60" height="30" as="geometry" />
        </mxCell>
        <mxCell id="xH8GjdEvR-t0Wh_f4aok-3" value="" style="endArrow=none;dashed=1;html=1;rounded=0;exitX=-0.004;exitY=0.356;exitDx=0;exitDy=0;exitPerimeter=0;" parent="uNLvpBGVdHc5UjUdVYCD-2" edge="1">
          <mxGeometry width="50" height="50" relative="1" as="geometry">
            <mxPoint y="140" as="sourcePoint" />
            <mxPoint x="610" y="139" as="targetPoint" />
          </mxGeometry>
        </mxCell>
      </root>
    </mxGraphModel>
  </diagram>
</mxfile>
